<svg width="65" height="70" viewBox="0 0 65 70" fill="none" xmlns="http://www.w3.org/2000/svg">
<circle cx="45" cy="35" r="20" fill="#FFE2D1"/>
<path d="M38.7355 43V25.9375H44.5831C46.5128 25.9375 47.9816 26.3242 48.9894 27.0977C49.9972 27.8711 50.5011 29.0234 50.5011 30.5547C50.5011 31.3359 50.2902 32.0391 49.8683 32.6641C49.4464 33.2891 48.8292 33.7734 48.0167 34.1172C48.9386 34.3672 49.6496 34.8398 50.1496 35.5352C50.6574 36.2227 50.9113 37.0508 50.9113 38.0195C50.9113 39.6211 50.3956 40.8516 49.3644 41.7109C48.341 42.5703 46.8722 43 44.9581 43H38.7355ZM41.7003 35.3008V40.6328H44.9933C45.923 40.6328 46.6496 40.4023 47.173 39.9414C47.6964 39.4805 47.9581 38.8398 47.9581 38.0195C47.9581 36.2461 47.0519 35.3398 45.2394 35.3008H41.7003ZM41.7003 33.1211H44.6066C45.5285 33.1211 46.2472 32.9141 46.7628 32.5C47.2863 32.0781 47.548 31.4844 47.548 30.7188C47.548 29.875 47.3058 29.2656 46.8214 28.8906C46.3449 28.5156 45.5988 28.3281 44.5831 28.3281H41.7003V33.1211Z" fill="#FFA319"/>
<path d="M0 4C0 1.79086 1.79086 0 4 0H10.5046V70H4C1.79086 70 0 68.2091 0 66V4Z" fill="#FFA319"/>
</svg>
