<svg width="28" height="28" viewBox="0 0 28 28" fill="none" xmlns="http://www.w3.org/2000/svg">
<circle cx="14" cy="14" r="14" fill="#FFE2D1"/>
<path d="M10.5957 19V9.04688H14.0068C15.1325 9.04688 15.9893 9.27246 16.5771 9.72363C17.165 10.1748 17.459 10.847 17.459 11.7402C17.459 12.196 17.3359 12.6061 17.0898 12.9707C16.8438 13.3353 16.4837 13.6178 16.0098 13.8184C16.5475 13.9642 16.9622 14.2399 17.2539 14.6455C17.5501 15.0465 17.6982 15.5296 17.6982 16.0947C17.6982 17.029 17.3975 17.7467 16.7959 18.248C16.1989 18.7493 15.3421 19 14.2256 19H10.5957ZM12.3252 14.5088V17.6191H14.2461C14.7884 17.6191 15.2122 17.4847 15.5176 17.2158C15.8229 16.9469 15.9756 16.5732 15.9756 16.0947C15.9756 15.0602 15.4469 14.5316 14.3896 14.5088H12.3252ZM12.3252 13.2373H14.0205C14.5583 13.2373 14.9775 13.1165 15.2783 12.875C15.5837 12.6289 15.7363 12.2826 15.7363 11.8359C15.7363 11.3438 15.5951 10.9883 15.3125 10.7695C15.0345 10.5508 14.5993 10.4414 14.0068 10.4414H12.3252V13.2373Z" fill="#FFA319"/>
</svg>
