<svg width="28" height="28" viewBox="0 0 28 28" fill="none" xmlns="http://www.w3.org/2000/svg">
<circle cx="14" cy="14" r="14" fill="#CCF5E3"/>
<path d="M18.0332 15.7598C17.9329 16.8216 17.541 17.651 16.8574 18.248C16.1738 18.8405 15.2646 19.1367 14.1299 19.1367C13.3369 19.1367 12.6374 18.9499 12.0312 18.5762C11.4297 18.1979 10.9648 17.6624 10.6367 16.9697C10.3086 16.277 10.1377 15.4727 10.124 14.5566V13.627C10.124 12.6882 10.2904 11.861 10.623 11.1455C10.9557 10.43 11.432 9.87858 12.0518 9.49121C12.6761 9.10384 13.3962 8.91016 14.2119 8.91016C15.3102 8.91016 16.1943 9.20866 16.8643 9.80566C17.5342 10.4027 17.9238 11.2458 18.0332 12.335H16.3105C16.2285 11.6195 16.0189 11.1045 15.6816 10.79C15.349 10.471 14.859 10.3115 14.2119 10.3115C13.46 10.3115 12.8812 10.5872 12.4756 11.1387C12.0745 11.6855 11.8695 12.4899 11.8604 13.5518V14.4336C11.8604 15.5091 12.0518 16.3294 12.4346 16.8945C12.8219 17.4596 13.387 17.7422 14.1299 17.7422C14.8089 17.7422 15.3193 17.5895 15.6611 17.2842C16.0029 16.9788 16.2194 16.4707 16.3105 15.7598H18.0332Z" fill="#00CC74"/>
</svg>
