<svg width="65" height="70" viewBox="0 0 65 70" fill="none" xmlns="http://www.w3.org/2000/svg">
<circle cx="45" cy="35" r="20" fill="#CCF5E3"/>
<path d="M51.9141 37.4453C51.7422 39.2656 51.0703 40.6875 49.8984 41.7109C48.7266 42.7266 47.168 43.2344 45.2227 43.2344C43.8633 43.2344 42.6641 42.9141 41.625 42.2734C40.5938 41.625 39.7969 40.707 39.2344 39.5195C38.6719 38.332 38.3789 36.9531 38.3555 35.3828V33.7891C38.3555 32.1797 38.6406 30.7617 39.2109 29.5352C39.7812 28.3086 40.5977 27.3633 41.6602 26.6992C42.7305 26.0352 43.9648 25.7031 45.3633 25.7031C47.2461 25.7031 48.7617 26.2148 49.9102 27.2383C51.0586 28.2617 51.7266 29.707 51.9141 31.5742H48.9609C48.8203 30.3477 48.4609 29.4648 47.8828 28.9258C47.3125 28.3789 46.4727 28.1055 45.3633 28.1055C44.0742 28.1055 43.082 28.5781 42.3867 29.5234C41.6992 30.4609 41.3477 31.8398 41.332 33.6602V35.1719C41.332 37.0156 41.6602 38.4219 42.3164 39.3906C42.9805 40.3594 43.9492 40.8438 45.2227 40.8438C46.3867 40.8438 47.2617 40.582 47.8477 40.0586C48.4336 39.5352 48.8047 38.6641 48.9609 37.4453H51.9141Z" fill="#00CC74"/>
<path d="M0 4C0 1.79086 1.79086 0 4 0H10.5046V70H4C1.79086 70 0 68.2091 0 66V4Z" fill="#00CC74"/>
</svg>
