<svg width="65" height="70" viewBox="0 0 65 70" fill="none" xmlns="http://www.w3.org/2000/svg">
<circle cx="45" cy="35" r="20" fill="#D1E9FF"/>
<path d="M38.466 43V25.9375H43.505C45.0128 25.9375 46.3488 26.2734 47.5128 26.9453C48.6847 27.6172 49.591 28.5703 50.2316 29.8047C50.8722 31.0391 51.1925 32.4531 51.1925 34.0469V34.9023C51.1925 36.5195 50.8683 37.9414 50.2199 39.168C49.5792 40.3945 48.6613 41.3398 47.466 42.0039C46.2785 42.668 44.9152 43 43.3761 43H38.466ZM41.4308 28.3281V40.6328H43.3644C44.9191 40.6328 46.1105 40.1484 46.9386 39.1797C47.7746 38.2031 48.2003 36.8047 48.216 34.9844V34.0352C48.216 32.1836 47.8136 30.7695 47.0089 29.793C46.2042 28.8164 45.0363 28.3281 43.505 28.3281H41.4308Z" fill="#1990FF"/>
<path d="M0 4C0 1.79086 1.79086 0 4 0H10.5046V70H4C1.79086 70 0 68.2091 0 66V4Z" fill="#1990FF"/>
</svg>
