<svg width="28" height="28" viewBox="0 0 28 28" fill="none" xmlns="http://www.w3.org/2000/svg">
<circle cx="14" cy="14" r="14" fill="#D1E9FF"/>
<path d="M10.4385 19V9.04688H13.3779C14.2575 9.04688 15.0368 9.24284 15.7158 9.63477C16.3994 10.0267 16.9281 10.5827 17.3018 11.3027C17.6755 12.0228 17.8623 12.8477 17.8623 13.7773V14.2764C17.8623 15.2197 17.6732 16.0492 17.2949 16.7646C16.9212 17.4801 16.3857 18.0316 15.6885 18.4189C14.9958 18.8063 14.2005 19 13.3027 19H10.4385ZM12.168 10.4414V17.6191H13.2959C14.2028 17.6191 14.8978 17.3366 15.3809 16.7715C15.8685 16.2018 16.1169 15.3861 16.126 14.3242V13.7705C16.126 12.6904 15.8913 11.8656 15.4219 11.2959C14.9525 10.7262 14.2712 10.4414 13.3779 10.4414H12.168Z" fill="#1990FF"/>
</svg>
